<svg width="71" height="32" viewBox="0 0 71 32" fill="none" xmlns="http://www.w3.org/2000/svg">
<g clip-path="url(#clip0_8_10)">
<path d="M22.3713 2.42903V25.3056V25.5874C22.3713 29.1192 19.3351 32 15.8081 32H2.42903C1.09306 32 0 30.9069 0 29.571V27.7346C0 26.3987 1.09306 25.3056 2.42903 25.3056H15.06C15.3272 25.3056 15.5458 25.087 15.5458 24.8198V23.4935C15.5458 23.2264 15.3272 23.0077 15.06 23.0077H0.971611C0.437225 23.0077 0 22.5705 0 22.0361V19.4516C0 18.9173 0.437225 18.48 0.971611 18.48H15.06C15.3272 18.48 15.5458 18.2614 15.5458 17.9942V16.5271C15.5458 16.2599 15.3272 16.0413 15.06 16.0413H2.42903C1.09306 16.0413 0 14.9482 0 13.6123V2.42903C0 1.09306 1.09306 0 2.42903 0H19.9423C21.2783 0 22.3713 1.09306 22.3713 2.42903Z" fill="white"/>
<path d="M46.6375 4.51699V2.47175C46.6375 1.13579 45.5444 0.0427246 44.2084 0.0427246H30.1444C26.9235 0.0427246 24.3147 2.6515 24.3147 5.87239V26.1305C24.3147 29.3514 26.9235 31.9601 30.1444 31.9601H40.8078C44.0287 31.9601 46.6375 29.3514 46.6375 26.1305V12.9992C46.6375 10.8325 44.8643 9.05441 42.6927 9.05441H31.5581C31.2909 9.05441 31.0722 8.8358 31.0722 8.56861V7.43182C31.0722 7.16463 31.2909 6.94602 31.5581 6.94602H44.2084C45.5541 6.94602 46.6375 5.85781 46.6375 4.51699ZM39.8799 16.4532L39.8653 17.9301C39.8653 18.1973 39.6467 18.411 39.3795 18.411H31.5435C31.2714 18.411 31.0577 18.1924 31.0577 17.9204L31.0722 16.4435C31.0722 16.1763 31.2909 15.9626 31.5581 15.9626H39.3941C39.6613 15.9626 39.8799 16.1812 39.8799 16.4532Z" fill="white"/>
<path d="M66.4238 23.4549V24.7811C66.4238 25.0483 66.6424 25.2669 66.9096 25.2669H68.1533C69.4941 25.2669 70.5823 26.3551 70.5823 27.696V29.5712C70.5823 30.8877 69.5135 31.9613 68.1922 31.9613H65.6805C64.1405 31.9613 62.7414 31.3346 61.731 30.329C60.8176 29.4157 60.2201 28.1866 60.1132 26.8167C60.0938 26.5689 59.88 26.3794 59.6323 26.3794H59.5351C59.2874 26.3794 59.0736 26.5689 59.0542 26.8167C58.9473 28.1866 58.3497 29.4157 57.4364 30.329C56.426 31.3346 55.0317 31.9613 53.4917 31.9613H50.9704C49.6538 31.9613 48.5802 30.8926 48.5802 29.5712V27.696C48.5802 26.3551 49.6684 25.2669 51.0092 25.2669H52.3209C52.5881 25.2669 52.8067 25.0483 52.8067 24.7811V23.4549C52.8067 23.1877 52.5881 22.9691 52.3209 22.9691H51.0092C49.6684 22.9691 48.5802 21.8809 48.5802 20.54V2.42922C48.5802 1.11269 49.649 0.0390625 50.9704 0.0390625H52.8116C54.1281 0.0390625 55.2017 1.10783 55.2017 2.42922V8.94873H55.2309C56.2559 7.66135 57.8251 6.84034 59.5837 6.84034C61.3423 6.84034 62.9115 7.66135 63.9365 8.94873H64.0045V2.42922C64.0045 1.11269 65.0733 0.0390625 66.3947 0.0390625H68.197C69.5136 0.0390625 70.5872 1.10783 70.5872 2.42922V20.54C70.5872 21.8809 69.499 22.9691 68.1582 22.9691H66.9145C66.6424 22.9691 66.4238 23.1877 66.4238 23.4549Z" fill="white"/>
</g>
<defs>
<clipPath id="clip0_8_10">
<rect width="71" height="32" fill="white"/>
</clipPath>
</defs>
</svg>
