<svg width="75" height="34" viewBox="0 0 75 34" fill="none" xmlns="http://www.w3.org/2000/svg">
<path d="M23.7695 2.58084V26.8872V27.1866C23.7695 30.9391 20.5435 34 16.7961 34H2.58084C1.16138 34 0 32.8386 0 31.4192V29.468C0 28.0486 1.16138 26.8872 2.58084 26.8872H16.0012C16.2851 26.8872 16.5174 26.6549 16.5174 26.371V24.9619C16.5174 24.678 16.2851 24.4457 16.0012 24.4457H1.03234C0.464551 24.4457 0 23.9812 0 23.4134V20.6674C0 20.0996 0.464551 19.635 1.03234 19.635H16.0012C16.2851 19.635 16.5174 19.4028 16.5174 19.1189V17.56C16.5174 17.2761 16.2851 17.0439 16.0012 17.0439H2.58084C1.16138 17.0439 0 15.8825 0 14.463V2.58084C0 1.16138 1.16138 0 2.58084 0H21.1887C22.6082 0 23.7695 1.16138 23.7695 2.58084Z" fill="white"/>
<path d="M49.5522 4.79688V2.62381C49.5522 1.20435 48.3908 0.0429688 46.9713 0.0429688H32.0282C28.6061 0.0429688 25.8342 2.81479 25.8342 6.23699V27.7612C25.8342 31.1834 28.6061 33.9552 32.0282 33.9552H43.3581C46.7803 33.9552 49.5522 31.1834 49.5522 27.7612V13.8092C49.5522 11.5071 47.6681 9.61789 45.3609 9.61789H33.5303C33.2464 9.61789 33.0141 9.38561 33.0141 9.10172V7.89389C33.0141 7.60999 33.2464 7.37772 33.5303 7.37772H46.9713C48.4011 7.37772 49.5522 6.2215 49.5522 4.79688ZM42.3723 17.4791L42.3568 19.0483C42.3568 19.3322 42.1245 19.5593 41.8406 19.5593H33.5148C33.2258 19.5593 32.9986 19.327 32.9986 19.038L33.0141 17.4688C33.0141 17.1849 33.2464 16.9578 33.5303 16.9578H41.8561C42.14 16.9578 42.3723 17.1901 42.3723 17.4791Z" fill="white"/>
<path d="M70.5757 24.9203V26.3295C70.5757 26.6134 70.808 26.8456 71.0918 26.8456H72.4132C73.8379 26.8456 74.9941 28.0018 74.9941 29.4265V31.4189C74.9941 32.8177 73.8585 33.9584 72.4545 33.9584H69.7859C68.1497 33.9584 66.6631 33.2926 65.5895 32.2241C64.6191 31.2537 63.9842 29.9478 63.8707 28.4922C63.85 28.229 63.6229 28.0277 63.3596 28.0277H63.2564C62.9932 28.0277 62.7661 28.229 62.7454 28.4922C62.6318 29.9478 61.997 31.2537 61.0266 32.2241C59.9529 33.2926 58.4715 33.9584 56.8353 33.9584H54.1564C52.7576 33.9584 51.6168 32.8229 51.6168 31.4189V29.4265C51.6168 28.0018 52.773 26.8456 54.1977 26.8456H55.5913C55.8752 26.8456 56.1075 26.6134 56.1075 26.3295V24.9203C56.1075 24.6364 55.8752 24.4042 55.5913 24.4042H54.1977C52.773 24.4042 51.6168 23.2479 51.6168 21.8233V2.58056C51.6168 1.18175 52.7524 0.0410156 54.1564 0.0410156H56.1126C57.5115 0.0410156 58.6522 1.17659 58.6522 2.58056V9.50754H58.6832C59.7723 8.13969 61.4395 7.26737 63.308 7.26737C65.1766 7.26737 66.8438 8.13969 67.9329 9.50754H68.0052V2.58056C68.0052 1.18175 69.1407 0.0410156 70.5447 0.0410156H72.4597C73.8585 0.0410156 74.9992 1.17659 74.9992 2.58056V21.8233C74.9992 23.2479 73.843 24.4042 72.4184 24.4042H71.097C70.808 24.4042 70.5757 24.6364 70.5757 24.9203Z" fill="white"/>
</svg>
